<?xml version="1.0" encoding="UTF-8"?>
<!DOCTYPE svg PUBLIC "-//W3C//DTD SVG 1.1//EN" "http://www.w3.org/Graphics/SVG/1.1/DTD/svg11.dtd">
<svg xmlns="http://www.w3.org/2000/svg" version="1.1" width="1067px" height="234px" style="shape-rendering:geometricPrecision; text-rendering:geometricPrecision; image-rendering:optimizeQuality; fill-rule:evenodd; clip-rule:evenodd" xmlns:xlink="http://www.w3.org/1999/xlink">
<g><path style="opacity:0.997" fill="#5b9ddb" d="M 163.5,56.5 C 164.035,58.4456 165.368,59.4456 167.5,59.5C 169.163,61.4927 170.33,63.8261 171,66.5C 171.667,104.833 171.667,143.167 171,181.5C 167.257,192.618 159.757,196.118 148.5,192C 144.675,189.512 142.508,186.012 142,181.5C 141.333,143.5 141.333,105.5 142,67.5C 142.24,65.1484 143.073,63.1484 144.5,61.5C 146.167,60.5 147.5,59.1667 148.5,57.5C 153.231,54.0769 158.231,53.7436 163.5,56.5 Z"/></g>
<g><path style="opacity:0.999" fill="#559ada" d="M 734.5,59.5 C 734.427,61.0269 735.094,62.0269 736.5,62.5C 737.268,63.2625 737.768,64.2625 738,65.5C 738.667,104.833 738.667,144.167 738,183.5C 733.579,193.524 726.413,196.191 716.5,191.5C 716.027,190.094 715.027,189.427 713.5,189.5C 711.827,188.657 710.66,187.324 710,185.5C 709.5,169.503 709.333,153.503 709.5,137.5C 693.833,137.5 678.167,137.5 662.5,137.5C 662.667,153.17 662.5,168.837 662,184.5C 659.465,190.77 654.798,193.77 648,193.5C 642.215,193.776 637.882,191.442 635,186.5C 633.85,165.895 633.35,145.229 633.5,124.5C 633.667,104.833 633.833,85.1667 634,65.5C 634.232,64.2625 634.732,63.2625 635.5,62.5C 636.906,62.0269 637.573,61.0269 637.5,59.5C 645.797,52.5781 653.63,53.2448 661,61.5C 662.457,78.4303 662.957,95.4303 662.5,112.5C 678.167,112.5 693.833,112.5 709.5,112.5C 709.333,96.1633 709.5,79.8299 710,63.5C 714.815,55.5851 721.648,53.0851 730.5,56C 732.093,56.9487 733.426,58.1154 734.5,59.5 Z"/></g>
<g><path style="opacity:0.997" fill="#5d9ddc" d="M 862.5,78.5 C 862.027,77.0937 861.027,76.427 859.5,76.5C 854.801,60.0179 861.134,52.8512 878.5,55C 888.773,58.3842 891.939,65.2175 888,75.5C 881.818,82.4426 874.318,84.2759 865.5,81C 864.058,80.6232 863.058,79.7899 862.5,78.5 Z"/></g>
<g><path style="opacity:0.997" fill="#5c9ddc" d="M 926.5,58.5 C 926.427,60.0269 927.094,61.0269 928.5,61.5C 929.793,62.842 930.626,64.5087 931,66.5C 931.667,105.167 931.667,143.833 931,182.5C 927.281,193.455 920.115,196.788 909.5,192.5C 909.027,191.094 908.027,190.427 906.5,190.5C 903.987,188.467 902.487,185.801 902,182.5C 901.333,143.833 901.333,105.167 902,66.5C 904.821,56.6659 911.321,52.8326 921.5,55C 923.584,55.6972 925.251,56.8639 926.5,58.5 Z"/></g>
<g><path style="opacity:0.871" fill="#b6cfee" d="M 163.5,56.5 C 165.23,57.0256 166.564,58.0256 167.5,59.5C 165.368,59.4456 164.035,58.4456 163.5,56.5 Z"/></g>
<g><path style="opacity:0.999" fill="#559ada" d="M 33.5,58.5 C 63.5019,58.3334 93.5019,58.5 123.5,59C 131.831,64.4172 133.664,71.5838 129,80.5C 127.269,82.6166 125.102,84.1166 122.5,85C 93.1667,85.6667 63.8333,85.6667 34.5,85C 25.2372,80.1211 23.0706,72.9544 28,63.5C 29.7297,61.5981 31.563,59.9314 33.5,58.5 Z"/></g>
<g><path style="opacity:0.702" fill="#b1cfed" d="M 148.5,57.5 C 147.5,59.1667 146.167,60.5 144.5,61.5C 144.833,59.1667 146.167,57.8333 148.5,57.5 Z"/></g>
<g><path style="opacity:0.827" fill="#a7cbec" d="M 926.5,58.5 C 927.906,58.9731 928.573,59.9731 928.5,61.5C 927.094,61.0269 926.427,60.0269 926.5,58.5 Z"/></g>
<g><path style="opacity:0.569" fill="#a8ccec" d="M 637.5,59.5 C 637.573,61.0269 636.906,62.0269 635.5,62.5C 635.427,60.9731 636.094,59.9731 637.5,59.5 Z"/></g>
<g><path style="opacity:0.431" fill="#bdd7f0" d="M 734.5,59.5 C 735.906,59.9731 736.573,60.9731 736.5,62.5C 735.094,62.0269 734.427,61.0269 734.5,59.5 Z"/></g>
<g><path style="opacity:0.998" fill="#559ada" d="M 427.5,159.5 C 427.054,162.01 427.72,164.01 429.5,165.5C 433.614,167.117 437.947,167.951 442.5,168C 444.491,168.374 446.158,169.207 447.5,170.5C 447.738,172.404 448.738,173.738 450.5,174.5C 453.939,183.577 450.939,189.411 441.5,192C 433.898,193.523 426.232,193.856 418.5,193C 414.224,192.195 410.557,190.362 407.5,187.5C 407.027,186.094 406.027,185.427 404.5,185.5C 401.149,181.112 399.483,176.112 399.5,170.5C 399.5,152.167 399.5,133.833 399.5,115.5C 397.5,115.5 395.5,115.5 393.5,115.5C 386.938,112.699 384.438,107.699 386,100.5C 387.786,94.2167 391.952,91.2167 398.5,91.5C 398.334,86.1563 398.501,80.8229 399,75.5C 399.232,74.2625 399.732,73.2625 400.5,72.5C 401.906,72.0269 402.573,71.0269 402.5,69.5C 402.973,68.0937 403.973,67.427 405.5,67.5C 407.027,67.573 408.027,66.9063 408.5,65.5C 415.588,63.7329 421.422,65.7329 426,71.5C 427.42,78.0496 427.92,84.7163 427.5,91.5C 433.176,91.3339 438.843,91.5006 444.5,92C 454.289,98.8591 454.956,106.526 446.5,115C 440.285,116.416 433.952,116.916 427.5,116.5C 427.5,130.833 427.5,145.167 427.5,159.5 Z"/></g>
<g><path style="opacity:0.812" fill="#aacaeb" d="M 408.5,65.5 C 408.027,66.9063 407.027,67.573 405.5,67.5C 405.973,66.0937 406.973,65.427 408.5,65.5 Z"/></g>
<g><path style="opacity:0.392" fill="#c2d8f2" d="M 402.5,69.5 C 402.573,71.0269 401.906,72.0269 400.5,72.5C 400.427,70.9731 401.094,69.9731 402.5,69.5 Z"/></g>
<g><path style="opacity:0.643" fill="#bad4ef" d="M 859.5,76.5 C 861.027,76.427 862.027,77.0937 862.5,78.5C 860.973,78.573 859.973,77.9063 859.5,76.5 Z"/></g>
<g><path style="opacity:0.998" fill="#589bdb" d="M 266.5,103.5 C 266.427,105.027 267.094,106.027 268.5,106.5C 271.839,109.835 274.172,113.835 275.5,118.5C 275.41,121.152 276.076,123.485 277.5,125.5C 279.341,130.576 279.841,135.909 279,141.5C 277.833,146.667 274.667,149.833 269.5,151C 249.825,151.167 230.158,151.667 210.5,152.5C 211.372,154.45 212.039,156.45 212.5,158.5C 212.427,160.027 213.094,161.027 214.5,161.5C 216.167,162.833 217.833,164.167 219.5,165.5C 219.821,167.048 220.821,167.715 222.5,167.5C 226.965,169.26 231.632,170.26 236.5,170.5C 244.64,169.804 252.64,168.471 260.5,166.5C 262.59,166.573 264.59,166.906 266.5,167.5C 267.326,169.264 268.659,170.598 270.5,171.5C 272.968,175.615 273.135,179.949 271,184.5C 264.091,189.694 256.258,192.527 247.5,193C 236.376,194.078 225.376,193.412 214.5,191C 211.931,190.102 209.598,188.935 207.5,187.5C 207.027,186.094 206.027,185.427 204.5,185.5C 191.614,177.419 184.114,165.753 182,150.5C 181.208,143.753 181.374,137.086 182.5,130.5C 183.924,128.485 184.59,126.152 184.5,123.5C 188.907,108.758 198.24,98.4245 212.5,92.5C 215.152,92.5905 217.485,91.9238 219.5,90.5C 237.532,86.2581 253.199,90.5915 266.5,103.5 Z M 240.5,114.5 C 240.973,115.906 241.973,116.573 243.5,116.5C 247.492,121.126 250.159,126.459 251.5,132.5C 237.459,133.149 223.792,132.482 210.5,130.5C 215.15,115.191 225.15,109.857 240.5,114.5 Z"/></g>
<g><path style="opacity:0.998" fill="#579bdb" d="M 803.5,168.5 C 805.027,168.573 806.027,167.906 806.5,166.5C 810.183,164.17 812.683,160.837 814,156.5C 815.226,137.197 815.893,117.863 816,98.5C 817.442,94.7251 819.942,91.8917 823.5,90C 833.728,87.0298 840.561,90.5298 844,100.5C 844.667,121.833 844.667,143.167 844,164.5C 841.978,176.856 835.145,185.356 823.5,190C 806.154,195.918 788.821,195.918 771.5,190C 768.244,188.884 765.578,187.051 763.5,184.5C 763.027,183.094 762.027,182.427 760.5,182.5C 759.5,181.167 758.5,179.833 757.5,178.5C 757.715,176.821 757.048,175.821 755.5,175.5C 753.282,172.281 752.115,168.614 752,164.5C 751.333,143.167 751.333,121.833 752,100.5C 755.361,90.5677 762.195,87.0677 772.5,90C 776.058,91.8917 778.558,94.7251 780,98.5C 780.333,115.5 780.667,132.5 781,149.5C 781.931,163.597 789.431,169.93 803.5,168.5 Z"/></g>
<g><path style="opacity:0.997" fill="#569adb" d="M 861.5,95.5 C 863.167,94.5 864.5,93.1667 865.5,91.5C 874.825,87.0954 881.991,89.4287 887,98.5C 887.984,128.253 887.65,157.919 886,187.5C 877.998,196.459 869.665,196.793 861,188.5C 860.138,186.913 859.471,185.246 859,183.5C 858.333,155.833 858.333,128.167 859,100.5C 859.374,98.5087 860.207,96.842 861.5,95.5 Z"/></g>
<g><path style="opacity:0.998" fill="#589bdb" d="M 966.5,192.5 C 964.485,191.076 962.152,190.41 959.5,190.5C 951.906,187.408 946.406,182.074 943,174.5C 941.494,167.567 941.161,160.567 942,153.5C 942.805,149.224 944.638,145.557 947.5,142.5C 949.167,141.5 950.5,140.167 951.5,138.5C 953.795,135.009 957.128,133.009 961.5,132.5C 964.152,132.59 966.485,131.924 968.5,130.5C 980.662,127.899 992.829,127.899 1005,130.5C 1005.08,125.66 1003.25,121.66 999.5,118.5C 999.027,117.094 998.027,116.427 996.5,116.5C 984.683,113.678 973.017,114.345 961.5,118.5C 951.734,116.99 947.9,111.324 950,101.5C 950.608,99.9336 951.442,98.6002 952.5,97.5C 954.027,97.573 955.027,96.9063 955.5,95.5C 961.012,92.4495 967.012,90.6162 973.5,90C 982.833,89.3333 992.167,89.3333 1001.5,90C 1021.46,93.967 1032.3,106.134 1034,126.5C 1034.67,145.167 1034.67,163.833 1034,182.5C 1030.04,193.386 1022.54,196.553 1011.5,192C 1009.62,190.457 1008.12,188.624 1007,186.5C 994.107,193.236 980.607,195.236 966.5,192.5 Z M 975.5,171.5 C 974.564,170.026 973.23,169.026 971.5,168.5C 967.981,160.895 969.648,154.728 976.5,150C 980.995,148.21 985.661,147.376 990.5,147.5C 995.828,147.981 1001.16,148.314 1006.5,148.5C 1007.81,164.028 1000.64,172.361 985,173.5C 981.767,173.066 978.6,172.399 975.5,171.5 Z"/></g>
<g><path style="opacity:0.998" fill="#589bdb" d="M 354.5,116.5 C 353.01,114.72 351.01,114.054 348.5,114.5C 335.809,112.991 326.309,117.658 320,128.5C 313.255,147.272 319.088,160.438 337.5,168C 341.152,168.499 344.818,168.665 348.5,168.5C 352.708,168.323 356.374,166.99 359.5,164.5C 375.351,161.244 380.851,167.244 376,182.5C 366.101,190.314 354.768,193.981 342,193.5C 338.417,193.463 334.917,193.13 331.5,192.5C 329.485,191.076 327.152,190.41 324.5,190.5C 309.234,186.407 298.401,177.073 292,162.5C 283.55,138.804 288.383,118.304 306.5,101C 309.727,98.8882 313.06,97.0549 316.5,95.5C 318.027,95.573 319.027,94.9063 319.5,93.5C 320.708,92.7659 322.041,92.4326 323.5,92.5C 326.152,92.5905 328.485,91.9238 330.5,90.5C 341.995,88.6447 353.329,89.478 364.5,93C 372.338,95.1677 377.005,100.168 378.5,108C 377.912,115.422 373.912,119.256 366.5,119.5C 362.272,119.311 358.272,118.311 354.5,116.5 Z"/></g>
<g><path style="opacity:0.999" fill="#579bdb" d="M 470.5,192.5 C 470.027,191.094 469.027,190.427 467.5,190.5C 465.292,189.106 463.792,187.106 463,184.5C 462.333,160.167 462.333,135.833 463,111.5C 463.992,101.508 469.159,94.6748 478.5,91C 489.81,88.3681 500.81,89.2015 511.5,93.5C 518.86,102.232 517.527,109.399 507.5,115C 503.833,115.333 500.167,115.667 496.5,116C 493.898,116.935 492.398,118.768 492,121.5C 491.667,142.833 491.333,164.167 491,185.5C 486.057,193.758 479.224,196.092 470.5,192.5 Z"/></g>
<g><path style="opacity:0.998" fill="#589bdb" d="M 613.5,111.5 C 613.427,113.027 614.094,114.027 615.5,114.5C 626.508,133.983 626.008,153.317 614,172.5C 597.25,191.86 576.416,198.36 551.5,192C 547.05,190.939 543.05,189.105 539.5,186.5C 539.027,185.094 538.027,184.427 536.5,184.5C 536.027,183.094 535.027,182.427 533.5,182.5C 530.5,180.167 527.833,177.5 525.5,174.5C 525.446,172.368 524.446,171.035 522.5,170.5C 515.293,158.793 512.959,146.126 515.5,132.5C 516.924,130.485 517.59,128.152 517.5,125.5C 517.733,122.458 518.733,119.792 520.5,117.5C 521.906,117.027 522.573,116.027 522.5,114.5C 524.122,111.545 526.122,108.878 528.5,106.5C 531.089,105.581 533.089,103.914 534.5,101.5C 547.268,91.1885 561.935,87.3552 578.5,90C 586.944,91.057 594.611,94.057 601.5,99C 606.399,102.397 610.399,106.564 613.5,111.5 Z M 591.5,156.5 C 590.094,156.973 589.427,157.973 589.5,159.5C 579.857,169.497 568.857,171.497 556.5,165.5C 555.71,164.599 554.71,163.932 553.5,163.5C 552.167,162.5 550.833,161.5 549.5,160.5C 549.573,158.973 548.906,157.973 547.5,157.5C 541.156,144.453 542.489,132.286 551.5,121C 562.258,112.895 573.258,112.562 584.5,120C 594.692,130.61 597.025,142.776 591.5,156.5 Z"/></g>
<g><path style="opacity:0.914" fill="#97bfe8" d="M 219.5,90.5 C 217.485,91.9238 215.152,92.5905 212.5,92.5C 214.515,91.0762 216.848,90.4095 219.5,90.5 Z"/></g>
<g><path style="opacity:0.929" fill="#93bce6" d="M 330.5,90.5 C 328.485,91.9238 326.152,92.5905 323.5,92.5C 325.515,91.0762 327.848,90.4095 330.5,90.5 Z"/></g>
<g><path style="opacity:0.643" fill="#b5d2ee" d="M 865.5,91.5 C 864.5,93.1667 863.167,94.5 861.5,95.5C 861.833,93.1667 863.167,91.8333 865.5,91.5 Z"/></g>
<g><path style="opacity:0.753" fill="#b5d1ee" d="M 319.5,93.5 C 319.027,94.9063 318.027,95.573 316.5,95.5C 316.973,94.0937 317.973,93.427 319.5,93.5 Z"/></g>
<g><path style="opacity:0.706" fill="#b1d1ee" d="M 955.5,95.5 C 955.027,96.9063 954.027,97.573 952.5,97.5C 952.973,96.0937 953.973,95.427 955.5,95.5 Z"/></g>
<g><path style="opacity:0.702" fill="#b5d3ef" d="M 266.5,103.5 C 267.906,103.973 268.573,104.973 268.5,106.5C 267.094,106.027 266.427,105.027 266.5,103.5 Z"/></g>
<g><path style="opacity:0.855" fill="#97bfe8" d="M 534.5,101.5 C 533.089,103.914 531.089,105.581 528.5,106.5C 529.911,104.086 531.911,102.419 534.5,101.5 Z"/></g>
<g><path style="opacity:0.996" fill="#5d9ddc" d="M 27.5,119.5 C 28.9063,119.027 29.573,118.027 29.5,116.5C 31.623,113.438 34.623,111.938 38.5,112C 62.5,111.333 86.5,111.333 110.5,112C 122.602,115.705 125.768,123.205 120,134.5C 117.749,136.377 115.249,137.877 112.5,139C 86.8333,139.667 61.1667,139.667 35.5,139C 26.621,134.836 23.9543,128.336 27.5,119.5 Z"/></g>
<g><path style="opacity:0.529" fill="#aecdec" d="M 613.5,111.5 C 614.906,111.973 615.573,112.973 615.5,114.5C 614.094,114.027 613.427,113.027 613.5,111.5 Z"/></g>
<g><path style="opacity:0.925" fill="#a6c6ea" d="M 348.5,114.5 C 351.01,114.054 353.01,114.72 354.5,116.5C 352.302,116.125 350.302,115.458 348.5,114.5 Z"/></g>
<g><path style="opacity:0.416" fill="#bdd6f0" d="M 240.5,114.5 C 242.027,114.427 243.027,115.094 243.5,116.5C 241.973,116.573 240.973,115.906 240.5,114.5 Z"/></g>
<g><path style="opacity:0.333" fill="#c2daf0" d="M 522.5,114.5 C 522.573,116.027 521.906,117.027 520.5,117.5C 520.427,115.973 521.094,114.973 522.5,114.5 Z"/></g>
<g><path style="opacity:0.482" fill="#b4d0ed" d="M 996.5,116.5 C 998.027,116.427 999.027,117.094 999.5,118.5C 997.973,118.573 996.973,117.906 996.5,116.5 Z"/></g>
<g><path style="opacity:0.561" fill="#aacded" d="M 29.5,116.5 C 29.573,118.027 28.9063,119.027 27.5,119.5C 27.427,117.973 28.0937,116.973 29.5,116.5 Z"/></g>
<g><path style="opacity:0.929" fill="#98bfe8" d="M 275.5,118.5 C 276.924,120.515 277.59,122.848 277.5,125.5C 276.076,123.485 275.41,121.152 275.5,118.5 Z"/></g>
<g><path style="opacity:0.389" fill="#b5d3ef" d="M 393.5,115.5 C 395.5,115.5 397.5,115.5 399.5,115.5C 399.5,133.833 399.5,152.167 399.5,170.5C 398.503,152.674 398.17,134.674 398.5,116.5C 396.585,116.784 394.919,116.451 393.5,115.5 Z"/></g>
<g><path style="opacity:0.647" fill="#a5c8ea" d="M 184.5,123.5 C 184.59,126.152 183.924,128.485 182.5,130.5C 182.41,127.848 183.076,125.515 184.5,123.5 Z"/></g>
<g><path style="opacity:0.655" fill="#a4c6ea" d="M 517.5,125.5 C 517.59,128.152 516.924,130.485 515.5,132.5C 515.41,129.848 516.076,127.515 517.5,125.5 Z"/></g>
<g><path style="opacity:0.882" fill="#a0c4e9" d="M 968.5,130.5 C 966.485,131.924 964.152,132.59 961.5,132.5C 963.515,131.076 965.848,130.41 968.5,130.5 Z"/></g>
<g><path style="opacity:0.237" fill="#cee4f6" d="M 210.5,130.5 C 223.792,132.482 237.459,133.149 251.5,132.5C 237.677,133.496 223.677,133.829 209.5,133.5C 209.263,132.209 209.596,131.209 210.5,130.5 Z"/></g>
<g><path style="opacity:0.616" fill="#b2d0ee" d="M 951.5,138.5 C 950.5,140.167 949.167,141.5 947.5,142.5C 947.833,140.167 949.167,138.833 951.5,138.5 Z"/></g>
<g><path style="opacity:0.753" fill="#afceec" d="M 547.5,157.5 C 548.906,157.973 549.573,158.973 549.5,160.5C 548.094,160.027 547.427,159.027 547.5,157.5 Z"/></g>
<g><path style="opacity:0.529" fill="#afceed" d="M 591.5,156.5 C 591.573,158.027 590.906,159.027 589.5,159.5C 589.427,157.973 590.094,156.973 591.5,156.5 Z"/></g>
<g><path style="opacity:0.522" fill="#aeceed" d="M 212.5,158.5 C 213.906,158.973 214.573,159.973 214.5,161.5C 213.094,161.027 212.427,160.027 212.5,158.5 Z"/></g>
<g><path style="opacity:0.886" fill="#a8c9ea" d="M 427.5,159.5 C 428.458,161.302 429.125,163.302 429.5,165.5C 427.72,164.01 427.054,162.01 427.5,159.5 Z"/></g>
<g><path style="opacity:0.796" fill="#bed6f0" d="M 553.5,163.5 C 554.71,163.932 555.71,164.599 556.5,165.5C 554.821,165.715 553.821,165.048 553.5,163.5 Z"/></g>
<g><path style="opacity:0.886" fill="#b1cbed" d="M 219.5,165.5 C 220.71,165.932 221.71,166.599 222.5,167.5C 220.821,167.715 219.821,167.048 219.5,165.5 Z"/></g>
<g><path style="opacity:0.867" fill="#9cc1e8" d="M 359.5,164.5 C 356.374,166.99 352.708,168.323 348.5,168.5C 351.939,166.796 355.605,165.462 359.5,164.5 Z"/></g>
<g><path style="opacity:0.999" fill="#569ada" d="M 127.5,169.5 C 127.427,171.027 128.094,172.027 129.5,172.5C 134.595,180.802 132.928,187.635 124.5,193C 93.8333,193.667 63.1667,193.667 32.5,193C 24.3912,188.274 22.3912,181.774 26.5,173.5C 27.9063,173.027 28.573,172.027 28.5,170.5C 30.0269,170.573 31.0269,169.906 31.5,168.5C 31.9175,167.778 32.5842,167.278 33.5,167C 63.5,166.333 93.5,166.333 123.5,167C 124.984,167.662 126.317,168.496 127.5,169.5 Z"/></g>
<g><path style="opacity:0.773" fill="#adcdec" d="M 806.5,166.5 C 806.027,167.906 805.027,168.573 803.5,168.5C 803.973,167.094 804.973,166.427 806.5,166.5 Z"/></g>
<g><path style="opacity:0.91" fill="#a8c9eb" d="M 266.5,167.5 C 268.773,167.957 270.106,169.29 270.5,171.5C 268.659,170.598 267.326,169.264 266.5,167.5 Z"/></g>
<g><path style="opacity:0.706" fill="#b6d4ef" d="M 31.5,168.5 C 31.0269,169.906 30.0269,170.573 28.5,170.5C 28.9731,169.094 29.9731,168.427 31.5,168.5 Z"/></g>
<g><path style="opacity:0.906" fill="#accced" d="M 971.5,168.5 C 973.23,169.026 974.564,170.026 975.5,171.5C 973.368,171.446 972.035,170.446 971.5,168.5 Z"/></g>
<g><path style="opacity:0.569" fill="#c0d8f0" d="M 127.5,169.5 C 128.906,169.973 129.573,170.973 129.5,172.5C 128.094,172.027 127.427,171.027 127.5,169.5 Z"/></g>
<g><path style="opacity:0.914" fill="#afceed" d="M 522.5,170.5 C 524.446,171.035 525.446,172.368 525.5,174.5C 524.026,173.564 523.026,172.23 522.5,170.5 Z"/></g>
<g><path style="opacity:0.804" fill="#b2cdee" d="M 447.5,170.5 C 449.262,171.262 450.262,172.596 450.5,174.5C 448.738,173.738 447.738,172.404 447.5,170.5 Z"/></g>
<g><path style="opacity:0.541" fill="#b6d2ef" d="M 28.5,170.5 C 28.573,172.027 27.9063,173.027 26.5,173.5C 26.427,171.973 27.0937,170.973 28.5,170.5 Z"/></g>
<g><path style="opacity:0.882" fill="#b0cdec" d="M 755.5,175.5 C 757.048,175.821 757.715,176.821 757.5,178.5C 756.599,177.71 755.932,176.71 755.5,175.5 Z"/></g>
<g><path style="opacity:0.631" fill="#bdd6f0" d="M 760.5,182.5 C 762.027,182.427 763.027,183.094 763.5,184.5C 761.973,184.573 760.973,183.906 760.5,182.5 Z"/></g>
<g><path style="opacity:0.404" fill="#c0daf1" d="M 533.5,182.5 C 535.027,182.427 536.027,183.094 536.5,184.5C 534.973,184.573 533.973,183.906 533.5,182.5 Z"/></g>
<g><path style="opacity:0.659" fill="#bbd5f0" d="M 404.5,185.5 C 406.027,185.427 407.027,186.094 407.5,187.5C 405.973,187.573 404.973,186.906 404.5,185.5 Z"/></g>
<g><path style="opacity:0.404" fill="#bdd6f0" d="M 536.5,184.5 C 538.027,184.427 539.027,185.094 539.5,186.5C 537.973,186.573 536.973,185.906 536.5,184.5 Z"/></g>
<g><path style="opacity:0.408" fill="#bbd5ef" d="M 204.5,185.5 C 206.027,185.427 207.027,186.094 207.5,187.5C 205.973,187.573 204.973,186.906 204.5,185.5 Z"/></g>
<g><path style="opacity:0.533" fill="#b3d1ee" d="M 713.5,189.5 C 715.027,189.427 716.027,190.094 716.5,191.5C 714.973,191.573 713.973,190.906 713.5,189.5 Z"/></g>
<g><path style="opacity:0.902" fill="#9ec2e9" d="M 959.5,190.5 C 962.152,190.41 964.485,191.076 966.5,192.5C 963.848,192.59 961.515,191.924 959.5,190.5 Z"/></g>
<g><path style="opacity:0.627" fill="#a5c8ea" d="M 324.5,190.5 C 327.152,190.41 329.485,191.076 331.5,192.5C 328.848,192.59 326.515,191.924 324.5,190.5 Z"/></g>
<g><path style="opacity:0.459" fill="#b9d4f0" d="M 467.5,190.5 C 469.027,190.427 470.027,191.094 470.5,192.5C 468.973,192.573 467.973,191.906 467.5,190.5 Z"/></g>
<g><path style="opacity:0.4" fill="#c0d7f0" d="M 906.5,190.5 C 908.027,190.427 909.027,191.094 909.5,192.5C 907.973,192.573 906.973,191.906 906.5,190.5 Z"/></g>
</svg>
