<?xml version="1.0" encoding="UTF-8"?>
<!DOCTYPE svg PUBLIC "-//W3C//DTD SVG 1.1//EN" "http://www.w3.org/Graphics/SVG/1.1/DTD/svg11.dtd">
<svg xmlns="http://www.w3.org/2000/svg" version="1.1" width="531px" height="470px" style="shape-rendering:geometricPrecision; text-rendering:geometricPrecision; image-rendering:optimizeQuality; fill-rule:evenodd; clip-rule:evenodd" xmlns:xlink="http://www.w3.org/1999/xlink">
<g><path style="opacity:1" fill="#d37632" d="M 302.5,53.5 C 302.427,55.0269 303.094,56.0269 304.5,56.5C 317.651,67.0092 325.318,80.6759 327.5,97.5C 327.158,98.3382 326.492,98.6716 325.5,98.5C 313.751,91.4573 301.418,85.7906 288.5,81.5C 286.485,80.0762 284.152,79.4095 281.5,79.5C 253.437,73.4164 225.104,71.9164 196.5,75C 178.04,77.2433 159.707,80.2433 141.5,84C 118.531,90.127 95.5308,96.127 72.5,102C 62.145,103.831 52.4783,102.164 43.5,97C 32.9521,85.5291 32.9521,74.0291 43.5,62.5C 44.9063,62.0269 45.573,61.0269 45.5,59.5C 45.8333,58.5 46.5,57.8333 47.5,57.5C 49.0269,57.573 50.0269,56.9063 50.5,55.5C 55.4419,50.7472 61.1086,46.9138 67.5,44C 120.243,24.5133 174.576,17.8466 230.5,24C 257.278,27.5249 281.278,37.3582 302.5,53.5 Z"/></g>
<g><path style="opacity:0.659" fill="#f1c8ad" d="M 302.5,53.5 C 303.906,53.9731 304.573,54.9731 304.5,56.5C 303.094,56.0269 302.427,55.0269 302.5,53.5 Z"/></g>
<g><path style="opacity:0.686" fill="#edc0a0" d="M 50.5,55.5 C 50.0269,56.9063 49.0269,57.573 47.5,57.5C 47.9731,56.0937 48.9731,55.427 50.5,55.5 Z"/></g>
<g><path style="opacity:0.667" fill="#f0c9ad" d="M 45.5,59.5 C 45.573,61.0269 44.9063,62.0269 43.5,62.5C 43.427,60.9731 44.0937,59.9731 45.5,59.5 Z"/></g>
<g><path style="opacity:0.957" fill="#e7ab82" d="M 281.5,79.5 C 284.152,79.4095 286.485,80.0762 288.5,81.5C 285.848,81.5905 283.515,80.9238 281.5,79.5 Z"/></g>
<g><path style="opacity:0.376" fill="#e4f1bd" d="M 331.5,85.5 C 330.662,85.8417 330.328,86.5084 330.5,87.5C 329.696,85.8113 328.696,84.1446 327.5,82.5C 329.436,82.0325 330.77,83.0325 331.5,85.5 Z"/></g>
<g><path style="opacity:1" fill="#a8d331" d="M 331.5,85.5 C 332.674,86.5137 333.34,87.847 333.5,89.5C 333.427,91.0269 334.094,92.0269 335.5,92.5C 336.167,92.5 336.5,92.8333 336.5,93.5C 336.427,95.0269 337.094,96.0269 338.5,96.5C 360.589,128.147 371.256,163.48 370.5,202.5C 370.44,216.989 369.273,231.323 367,245.5C 377.903,251.916 387.736,259.582 396.5,268.5C 396.56,269.043 396.893,269.376 397.5,269.5C 398.814,264.348 398.814,259.348 397.5,254.5C 395.923,226.462 391.923,198.796 385.5,171.5C 385.328,170.508 385.662,169.842 386.5,169.5C 386.427,171.027 387.094,172.027 388.5,172.5C 412.048,209.078 430.048,248.411 442.5,290.5C 442.41,293.152 443.076,295.485 444.5,297.5C 449.524,318.054 451.857,339.054 451.5,360.5C 452.021,384.351 448.854,407.684 442,430.5C 433.317,449.31 418.483,459.31 397.5,460.5C 392.283,460.39 387.283,459.39 382.5,457.5C 382.027,456.094 381.027,455.427 379.5,455.5C 374.654,453.497 370.82,450.164 368,445.5C 363.46,433.549 363.46,421.549 368,409.5C 372.214,399.088 376.381,388.755 380.5,378.5C 381.924,376.485 382.59,374.152 382.5,371.5C 382.595,369.214 383.262,367.214 384.5,365.5C 385.924,363.485 386.59,361.152 386.5,358.5C 389.741,345.312 391.907,331.978 393,318.5C 387.935,313.926 382.769,309.593 377.5,305.5C 377.027,304.094 376.027,303.427 374.5,303.5C 367.332,299.937 360.165,296.27 353,292.5C 338.62,333.264 320.953,372.598 300,410.5C 285.463,434.176 264.297,447.51 236.5,450.5C 229.57,450.153 222.903,448.653 216.5,446C 214.416,445.303 212.749,444.136 211.5,442.5C 211.027,441.094 210.027,440.427 208.5,440.5C 196.982,427.207 195.649,412.873 204.5,397.5C 205.906,397.027 206.573,396.027 206.5,394.5C 206.263,393.209 206.596,392.209 207.5,391.5C 208.906,391.027 209.573,390.027 209.5,388.5C 212.445,382.896 215.779,377.562 219.5,372.5C 220.906,372.027 221.573,371.027 221.5,369.5C 224.753,362.652 228.753,356.319 233.5,350.5C 234.906,350.027 235.573,349.027 235.5,347.5C 241.183,338.126 246.85,328.793 252.5,319.5C 253.906,319.027 254.573,318.027 254.5,316.5C 271.421,286.33 287.587,255.663 303,224.5C 315.106,199.597 324.439,173.597 331,146.5C 335.664,126.749 335.498,107.082 330.5,87.5C 330.328,86.5084 330.662,85.8417 331.5,85.5 Z"/></g>
<g><path style="opacity:0.502" fill="#d9eaa4" d="M 333.5,89.5 C 334.906,89.9731 335.573,90.9731 335.5,92.5C 334.094,92.0269 333.427,91.0269 333.5,89.5 Z"/></g>
<g><path style="opacity:0.455" fill="#dbeba9" d="M 336.5,93.5 C 337.906,93.9731 338.573,94.9731 338.5,96.5C 337.094,96.0269 336.427,95.0269 336.5,93.5 Z"/></g>
<g><path style="opacity:0.231" fill="#f2d7c1" d="M 327.5,97.5 C 328.885,98.3023 328.718,98.9689 327,99.5C 326.235,99.4301 325.735,99.0967 325.5,98.5C 326.492,98.6716 327.158,98.3382 327.5,97.5 Z"/></g>
<g><path style="opacity:1" fill="#d37632" d="M 314.5,176.5 C 313.833,176.833 313.167,177.167 312.5,177.5C 301.586,175.237 290.586,173.403 279.5,172C 238.64,169.053 198.306,172.386 158.5,182C 135.252,187.895 112.252,194.561 89.5,202C 83.8228,203.422 78.1561,203.589 72.5,202.5C 70.4855,201.076 68.1522,200.41 65.5,200.5C 56.2775,197.601 51.6109,191.267 51.5,181.5C 51.6168,172.606 54.9501,165.273 61.5,159.5C 63.1667,158.5 64.5,157.167 65.5,155.5C 71.7371,149.702 78.7371,144.869 86.5,141C 96.573,136.92 106.906,133.753 117.5,131.5C 120.152,131.59 122.485,130.924 124.5,129.5C 125.568,128.566 126.901,128.232 128.5,128.5C 131.152,128.59 133.485,127.924 135.5,126.5C 180.533,115.064 226.199,111.564 272.5,116C 290.795,118.157 308.462,122.657 325.5,129.5C 324.846,145.787 321.179,161.454 314.5,176.5 Z"/></g>
<g><path style="opacity:0.945" fill="#e6a87d" d="M 135.5,126.5 C 133.485,127.924 131.152,128.59 128.5,128.5C 130.515,127.076 132.848,126.41 135.5,126.5 Z"/></g>
<g><path style="opacity:0.969" fill="#e5a87c" d="M 124.5,129.5 C 122.485,130.924 120.152,131.59 117.5,131.5C 119.515,130.076 121.848,129.41 124.5,129.5 Z"/></g>
<g><path style="opacity:0.663" fill="#eec4a6" d="M 65.5,155.5 C 64.5,157.167 63.1667,158.5 61.5,159.5C 61.8333,157.167 63.1667,155.833 65.5,155.5 Z"/></g>
<g><path style="opacity:0.831" fill="#d8eaa3" d="M 386.5,169.5 C 385.662,169.842 385.328,170.508 385.5,171.5C 384.095,169.775 383.595,167.775 384,165.5C 385.095,166.693 385.928,168.027 386.5,169.5 Z"/></g>
<g><path style="opacity:0.69" fill="#deeeab" d="M 386.5,169.5 C 387.906,169.973 388.573,170.973 388.5,172.5C 387.094,172.027 386.427,171.027 386.5,169.5 Z"/></g>
<g><path style="opacity:0.025" fill="#fbefe7" d="M 314.5,176.5 C 314.289,178.424 313.623,178.757 312.5,177.5C 313.167,177.167 313.833,176.833 314.5,176.5 Z"/></g>
<g><path style="opacity:0.663" fill="#e9b48d" d="M 65.5,200.5 C 68.1522,200.41 70.4855,201.076 72.5,202.5C 69.8478,202.59 67.5145,201.924 65.5,200.5 Z"/></g>
<g><path style="opacity:1" fill="#d37632" d="M 71.5,262.5 C 72.9063,262.027 73.573,261.027 73.5,259.5C 74.1667,258.167 75.1667,257.167 76.5,256.5C 79.5,255.5 81.5,253.5 82.5,250.5C 95.0278,241.181 109.028,234.848 124.5,231.5C 127.152,231.59 129.485,230.924 131.5,229.5C 185.273,213.189 239.94,209.189 295.5,217.5C 296.167,217.833 296.833,218.167 297.5,218.5C 289.16,235.202 280.827,251.869 272.5,268.5C 237.394,269.055 202.727,273.222 168.5,281C 147.657,286.725 126.99,293.059 106.5,300C 95.5542,303.731 84.8875,303.064 74.5,298C 66.448,291.714 63.6146,283.547 66,273.5C 67.3366,269.493 69.1699,265.827 71.5,262.5 Z"/></g>
<g><path style="opacity:0.945" fill="#e7ab80" d="M 131.5,229.5 C 129.485,230.924 127.152,231.59 124.5,231.5C 126.515,230.076 128.848,229.41 131.5,229.5 Z"/></g>
<g><path style="opacity:0.906" fill="#e8ab7f" d="M 82.5,250.5 C 81.5,253.5 79.5,255.5 76.5,256.5C 78.1667,254.167 80.1667,252.167 82.5,250.5 Z"/></g>
<g><path style="opacity:0.627" fill="#c8e27e" d="M 397.5,254.5 C 398.814,259.348 398.814,264.348 397.5,269.5C 396.893,269.376 396.56,269.043 396.5,268.5C 397.486,264.03 397.819,259.363 397.5,254.5 Z"/></g>
<g><path style="opacity:0.384" fill="#f0caaf" d="M 73.5,259.5 C 73.573,261.027 72.9063,262.027 71.5,262.5C 71.427,260.973 72.0937,259.973 73.5,259.5 Z"/></g>
<g><path style="opacity:0.722" fill="#d0e68e" d="M 442.5,290.5 C 443.924,292.515 444.59,294.848 444.5,297.5C 443.076,295.485 442.41,293.152 442.5,290.5 Z"/></g>
<g><path style="opacity:0.549" fill="#d7ea9e" d="M 374.5,303.5 C 376.027,303.427 377.027,304.094 377.5,305.5C 375.973,305.573 374.973,304.906 374.5,303.5 Z"/></g>
<g><path style="opacity:0.471" fill="#dfeeaf" d="M 254.5,316.5 C 254.573,318.027 253.906,319.027 252.5,319.5C 252.427,317.973 253.094,316.973 254.5,316.5 Z"/></g>
<g><path style="opacity:0.424" fill="#deedae" d="M 235.5,347.5 C 235.573,349.027 234.906,350.027 233.5,350.5C 233.427,348.973 234.094,347.973 235.5,347.5 Z"/></g>
<g><path style="opacity:0.949" fill="#cce485" d="M 386.5,358.5 C 386.59,361.152 385.924,363.485 384.5,365.5C 384.41,362.848 385.076,360.515 386.5,358.5 Z"/></g>
<g><path style="opacity:0.424" fill="#deedae" d="M 221.5,369.5 C 221.573,371.027 220.906,372.027 219.5,372.5C 219.427,370.973 220.094,369.973 221.5,369.5 Z"/></g>
<g><path style="opacity:0.937" fill="#d0e58c" d="M 382.5,371.5 C 382.59,374.152 381.924,376.485 380.5,378.5C 380.41,375.848 381.076,373.515 382.5,371.5 Z"/></g>
<g><path style="opacity:0.439" fill="#dbecaa" d="M 209.5,388.5 C 209.573,390.027 208.906,391.027 207.5,391.5C 207.427,389.973 208.094,388.973 209.5,388.5 Z"/></g>
<g><path style="opacity:0.486" fill="#dbeba6" d="M 206.5,394.5 C 206.573,396.027 205.906,397.027 204.5,397.5C 204.427,395.973 205.094,394.973 206.5,394.5 Z"/></g>
<g><path style="opacity:0.498" fill="#deedab" d="M 208.5,440.5 C 210.027,440.427 211.027,441.094 211.5,442.5C 209.973,442.573 208.973,441.906 208.5,440.5 Z"/></g>
<g><path style="opacity:0.329" fill="#e2f0b9" d="M 379.5,455.5 C 381.027,455.427 382.027,456.094 382.5,457.5C 380.973,457.573 379.973,456.906 379.5,455.5 Z"/></g>
</svg>
